HIERARCHY
ROOT hip
{
	OFFSET 0.000000 0.000000 0.000000 
	CHANNELS 6 Xposition Yposition Zposition Xrotation Zrotation Yrotation
	JOINT abdomen
	{
		OFFSET 0.000000 3.402643 0.000000 
		CHANNELS 3 Xrotation Zrotation Yrotation
		JOINT chest
		{
			OFFSET 0.000000 8.438565 -0.680529 
			CHANNELS 3 Xrotation Zrotation Yrotation
			JOINT neck
			{
				OFFSET 0.000000 10.207942 -0.272212 
				CHANNELS 3 Xrotation Zrotation Yrotation
				JOINT head
				{
					OFFSET 0.000000 3.130431 0.000000 
					CHANNELS 3 Xrotation Zrotation Yrotation
					End Site
					{
						OFFSET 0.000000 3.130435 0.000000 
					}
				}
			}
			JOINT lCollar
			{
				OFFSET 3.470700 6.669187 -0.816635 
				CHANNELS 3 Yrotation Zrotation Xrotation
				JOINT lShldr
				{
					OFFSET 3.198488 0.000000 0.000000 
					CHANNELS 3 Zrotation Yrotation Xrotation
					JOINT lForeArm
					{
						OFFSET 10.139888 0.000000 0.000000 
						CHANNELS 3 Yrotation Zrotation Xrotation
						JOINT lHand
						{
							OFFSET 8.370511 0.000000 0.000000 
							CHANNELS 3 Zrotation Yrotation Xrotation
							End Site
							{
								OFFSET 4.083176 0.000000 0.000000 
							}
						}
					}
				}
			}
			JOINT rCollar
			{
				OFFSET -3.470700 6.669187 -0.816635 
				CHANNELS 3 Yrotation Zrotation Xrotation
				JOINT rShldr
				{
					OFFSET -3.198488 0.000000 0.000000 
					CHANNELS 3 Zrotation Yrotation Xrotation
					JOINT rForeArm
					{
						OFFSET -10.139888 0.000000 0.000000 
						CHANNELS 3 Yrotation Zrotation Xrotation
						JOINT rHand
						{
							OFFSET -8.370511 0.000000 0.000000 
							CHANNELS 3 Zrotation Yrotation Xrotation
							End Site
							{
								OFFSET -4.083176 0.000000 0.000000 
							}
						}
					}
				}
			}
		}
	}
	JOINT lThigh
	{
		OFFSET 5.308129 -1.633274 1.361059 
		CHANNELS 3 Xrotation Zrotation Yrotation
		JOINT lShin
		{
			OFFSET -2.041588 -20.007561 0.000000 
			CHANNELS 3 Xrotation Zrotation Yrotation
			JOINT lFoot
			{
				OFFSET 0.000000 -19.190928 -1.224953 
				CHANNELS 3 Xrotation Yrotation Zrotation
				End Site
				{
					OFFSET 0.000000 -2.449906 4.627600 
				}
			}
		}
	}
	JOINT rThigh
	{
		OFFSET -5.308129 -1.633274 1.361059 
		CHANNELS 3 Xrotation Zrotation Yrotation
		JOINT rShin
		{
			OFFSET 2.041588 -20.007561 0.000000 
			CHANNELS 3 Xrotation Zrotation Yrotation
			JOINT rFoot
			{
				OFFSET 0.000000 -19.190928 -1.224953 
				CHANNELS 3 Xrotation Yrotation Zrotation
				End Site
				{
					OFFSET 0.000000 -2.449906 4.627600 
				}
			}
		}
	}
}
MOTION
Frames: 13
Frame Time: 0.016667
35.571239 49.352512 27.229595 -3.862571 -4.701850 -39.043350 0.000000 0.000000 0.000000 20.591120 -4.335935 -0.068902 -8.915799 -0.253906 -0.048871 27.557426 0.380858 -0.175777 -3.107095 9.634717 1.404524 -70.325294 -19.928492 14.838569 -55.302563 -0.682267 3.005222 -4.773144 -14.589152 2.472674 3.210579 -10.050749 1.436575 81.017929 20.707670 15.487797 60.788055 0.648532 3.094765 -3.684894 9.674233 8.406527 5.031983 5.550662 12.845199 8.373971 -3.874612 19.470736 -6.117747 -0.066805 -2.396098 -1.670988 -16.985348 -15.171546 13.881761 3.853086 -2.374404 2.563844 0.163515 6.819652 
35.503780 49.324066 27.086449 -3.309752 -4.166208 -40.461689 0.000000 0.000000 0.000000 19.425438 -4.707031 -0.020267 -8.965364 -0.078123 0.380859 27.672840 -0.507804 0.332018 -3.088822 9.627824 1.354833 -70.240150 -20.914572 13.259504 -58.455627 -0.680103 3.054885 -3.190989 -14.345860 2.295422 3.210445 -10.073318 1.377255 80.113762 23.562500 17.022438 62.580456 0.642844 3.128915 -4.567398 9.722810 7.218736 4.234519 5.553027 12.690008 8.490180 -3.892944 21.217165 -5.994588 -0.127291 -2.741288 -2.744656 -17.558794 -14.503106 14.294282 3.862283 -1.135581 2.761439 0.194436 7.415465 
35.436043 49.295704 26.943323 -2.778341 -3.618086 -41.870163 0.000000 0.000000 0.000000 18.258247 -5.078124 0.038909 -9.012306 0.097647 0.800797 27.782497 -1.396338 0.830308 -3.068685 9.611668 1.295527 -70.129196 -21.890690 11.668509 -61.612621 -0.679794 3.103700 -1.607468 -14.094723 2.123702 3.211774 -10.085590 1.327536 79.265244 26.438171 18.530172 64.374626 0.638507 3.160729 -5.451817 9.750386 6.028700 3.445256 5.554418 12.544693 8.598310 -3.864234 22.938242 -5.887118 -0.163129 -3.107380 -3.818585 -18.117508 -13.832864 14.693542 3.843876 0.089536 2.964191 0.225827 7.999993 
35.181149 49.315517 26.814459 -3.159315 -4.082717 -40.112972 0.000000 0.000000 0.000000 18.700409 -4.462891 0.009736 -8.984786 -0.185546 0.126952 27.673025 -1.347654 0.117155 -3.093620 9.629178 1.324346 -70.106651 -25.311346 12.216283 -63.002144 -0.673456 3.133689 -1.182854 -14.097577 1.471904 3.195022 -10.055660 1.348465 77.936546 28.511839 17.197392 65.913826 0.647805 3.188447 -6.143510 9.542915 6.442013 4.010061 6.206903 13.383999 8.536410 -3.890320 20.394005 -5.704210 -0.185379 -3.093650 -1.817871 -18.079018 -14.608168 14.181722 3.854693 -1.348792 2.511094 0.170820 6.657793 
34.926224 49.335285 26.685553 -3.570043 -4.531207 -38.364716 0.000000 0.000000 0.000000 19.141285 -3.857422 -0.010400 -8.960370 -0.468729 -0.546937 27.562658 -1.308521 -0.605757 -3.109046 9.656657 1.354808 -70.110229 -28.718029 12.773631 -64.402069 -0.678173 3.161710 -0.750613 -14.083360 0.824739 3.189971 -10.034730 1.377278 76.525391 30.565229 15.790330 67.445534 0.648184 3.213469 -6.830977 9.327184 6.866011 4.568486 6.824188 14.226805 8.482793 -3.905534 17.860826 -5.506181 -0.190071 -3.061350 0.183774 -18.012644 -15.411371 13.702617 3.841968 -2.700112 2.045816 0.091881 5.323352 
34.651627 49.322392 26.530319 -3.694903 -4.179455 -37.235107 0.000000 0.000000 0.000000 18.641897 -3.994141 0.009742 -8.985265 -0.605404 -0.839900 28.131384 -0.966662 -0.957225 -3.094078 9.648705 1.324343 -69.855629 -31.560303 13.356386 -65.546638 -0.677882 3.180778 0.436955 -13.369864 0.040899 3.194555 -10.036133 1.348462 75.363556 32.565804 14.578822 68.633682 0.649008 3.237029 -7.051157 9.581923 7.440866 4.350265 6.966647 14.223728 8.447297 -3.889878 16.722382 -5.291831 -0.209871 -3.248053 1.170924 -18.308975 -16.165800 13.298064 3.853597 -3.488828 2.190808 0.084078 5.711838 
34.377079 49.309406 26.375210 -3.807769 -3.821136 -36.118870 0.000000 0.000000 0.000000 18.142410 -4.140624 0.029220 -9.008763 -0.742042 -1.132971 28.695585 -0.615076 -1.298963 -3.081001 9.649978 1.305128 -69.618958 -34.401447 13.931026 -66.682816 -0.677100 3.202172 1.616631 -12.631652 -0.726354 3.201094 -10.046761 1.327547 74.119110 34.543991 13.280687 69.814056 0.649740 3.262044 -7.276695 9.843564 8.013114 4.139465 7.109197 14.199689 8.433765 -3.895698 15.591998 -5.079266 -0.207927 -3.435692 2.165007 -18.577812 -16.945147 12.898294 3.843968 -4.269303 2.321089 0.055782 6.124063 
34.132946 49.243595 26.297878 -4.588266 -3.962101 -35.988621 0.000000 0.000000 0.000000 18.533716 -4.218750 0.019478 -8.990783 -0.712770 -1.054849 28.932255 -1.239962 -1.201524 -3.082659 9.649453 1.314741 -69.807961 -35.730480 13.647896 -68.126678 -0.675618 3.224805 2.387418 -13.157656 -1.172959 3.202822 -10.046215 1.337147 72.939537 36.620121 13.184088 71.065689 0.644092 3.281599 -8.089542 9.583759 8.101580 4.921276 7.099049 14.247044 8.462602 -3.895388 15.472777 -4.999166 -0.217803 -3.736146 4.198727 -18.876312 -17.595860 11.790549 3.871352 -4.337587 1.886811 -0.173977 8.996995 
33.888714 49.177795 26.220476 -5.349859 -4.103498 -35.858620 0.000000 0.000000 0.000000 18.935547 -4.296651 -0.000654 -8.982205 -0.693257 -0.986492 29.176878 -1.864882 -1.113963 -3.084088 9.639165 1.324356 -69.988358 -37.069504 13.355876 -69.563828 -0.673537 3.251843 3.173929 -13.664862 -1.626851 3.206511 -10.054886 1.358054 71.709145 38.708782 13.023301 72.320023 0.638996 3.300219 -8.914277 9.328391 8.187705 5.710753 7.078449 14.283363 8.477572 -3.900974 15.353825 -4.918392 -0.234679 -4.071291 6.239807 -19.159883 -18.269127 10.693779 3.888855 -4.386819 1.479298 -0.428953 11.865656 
33.584862 49.126019 26.094633 -5.961246 -3.670990 -35.073002 0.000000 0.000000 0.000000 18.915207 -4.726562 0.009732 -8.978231 -0.790856 -1.152504 29.270809 -1.864755 -1.299729 -3.064336 9.629847 1.324380 -70.098427 -38.073986 13.708973 -71.301994 -0.680023 3.283700 3.729261 -13.206045 -2.129377 3.226267 -10.064193 1.358031 70.513344 39.565929 12.714896 74.028099 0.646138 3.329208 -9.586315 9.271394 8.895574 5.914622 6.872693 13.694645 8.399993 -3.901599 15.066943 -4.703450 -0.184200 -4.375189 7.340159 -19.321310 -19.160067 10.275151 3.908699 -4.961949 0.220689 -0.426542 12.984620 
33.280800 49.074303 25.968639 -6.559640 -3.228523 -34.300682 0.000000 0.000000 0.000000 18.904488 -5.156250 0.019452 -8.973845 -0.888440 -1.308891 29.365057 -1.864600 -1.494938 -3.054117 9.610543 1.324394 -70.204819 -39.072227 14.047756 -73.046623 -0.687054 3.318210 4.276283 -12.739621 -2.624784 3.236498 -10.083493 1.358020 69.295776 40.419941 12.392300 75.745262 0.654222 3.358193 -10.251555 9.224648 9.619521 6.129402 6.668174 13.095235 8.351171 -3.913247 14.816243 -4.497377 -0.172986 -4.706242 8.444893 -19.470640 -20.013653 9.852052 3.931818 -5.547553 -1.048009 -0.452262 14.091606 
32.843681 49.068954 25.749922 -6.477779 -3.047200 -34.176250 0.000000 0.000000 0.000000 18.490694 -5.263669 0.058347 -8.990821 -0.937221 -1.396777 29.075985 -2.254999 -1.583496 -3.041053 9.611803 1.305175 -68.758484 -38.751793 13.436747 -75.130920 -0.694622 3.357539 5.316800 -13.122254 -3.215131 3.242791 -10.084371 1.338809 69.171494 41.064499 13.169651 77.721375 0.669387 3.399834 -11.215015 8.279019 10.094979 6.061814 7.175564 13.395715 8.296817 -3.905145 14.440705 -4.251708 -0.213597 -5.206265 8.671214 -18.750010 -19.867498 9.365348 3.929794 -6.889372 -2.010073 -0.573263 13.612541 
32.406479 49.063683 25.531189 -6.394633 -2.865003 -34.062473 0.000000 0.000000 0.000000 18.077688 -5.361321 0.087506 -9.007819 -0.986001 -1.474895 28.777445 -2.645386 -1.652237 -3.027766 9.603292 1.285956 -67.324867 -38.420349 12.839005 -77.212921 -0.693473 3.397352 6.353550 -13.499875 -3.807664 3.249312 -10.095016 1.317889 69.059402 41.716923 13.943448 79.704254 0.666809 3.437532 -12.173651 7.344368 10.584769 5.992471 7.692200 13.677300 8.238021 -3.905194 14.054853 -4.018020 -0.253918 -5.705378 8.892084 -18.042717 -19.701571 8.874547 3.901862 -8.224646 -2.945911 -0.695373 13.126754 
